<svg xmlns="http://www.w3.org/2000/svg" viewBox="0 0 487 371"><defs><style>.cls-1{fill:#eee7e5;}.cls-2{fill:none;stroke:#fff;stroke-miterlimit:10;stroke-width:3px;}.cls-3{fill:#9dc5bd;}</style></defs><g id="Pasos"><rect class="cls-1" x="-6" y="-24" width="482" height="417"/><rect class="cls-2" x="135.07" y="104.93" width="213.26" height="138.39" rx="4.53" transform="translate(415.82 -67.57) rotate(90)"/><path class="cls-3" d="M298.83,144.56h-.13a3.76,3.76,0,0,1-3.06-1.74c-4.19-6.57-11.53-12.69-11.6-12.75a3.79,3.79,0,0,1,4.83-5.83A80.38,80.38,0,0,1,299,134.61,142,142,0,0,1,328.35,110a3.79,3.79,0,0,1,4.09,6.37C312,129.47,302,142.89,301.87,143A3.78,3.78,0,0,1,298.83,144.56Z"/><path class="cls-3" d="M298.83,195.24h-.13a3.8,3.8,0,0,1-3.06-1.75c-4.19-6.57-11.53-12.69-11.6-12.75a3.79,3.79,0,0,1,4.83-5.83A81.15,81.15,0,0,1,299,185.28a142,142,0,0,1,29.32-24.62,3.78,3.78,0,0,1,4.09,6.36C312,180.15,302,193.57,301.87,193.7A3.77,3.77,0,0,1,298.83,195.24Z"/><path class="cls-3" d="M298.83,241.69h-.13a3.76,3.76,0,0,1-3.06-1.74c-4.19-6.57-11.53-12.69-11.6-12.75a3.79,3.79,0,0,1,4.83-5.83A79.63,79.63,0,0,1,299,231.74a142,142,0,0,1,29.32-24.63,3.79,3.79,0,0,1,4.09,6.37C312,226.6,302,240,301.87,240.16A3.78,3.78,0,0,1,298.83,241.69Z"/><path class="cls-3" d="M206.4,127.82q33,.6,65.93-.28c4.07-.11,4.09-6.45,0-6.34q-33,.89-65.93.29c-4.08-.07-4.08,6.26,0,6.33Z"/><path class="cls-3" d="M206.4,178.5q33,.58,65.93-.29c4.07-.11,4.09-6.44,0-6.33q-33,.87-65.93.28c-4.08-.07-4.08,6.27,0,6.34Z"/><path class="cls-3" d="M206.4,225q33,.59,65.93-.29c4.07-.1,4.09-6.44,0-6.33q-33,.87-65.93.29c-4.08-.08-4.08,6.26,0,6.33Z"/></g></svg>