<svg xmlns="http://www.w3.org/2000/svg" viewBox="0 0 380 320"><defs><style>.cls-1{fill:#eee7e5;}.cls-2{fill:#9dc5bd;}.cls-3{fill:#a9cdc6;opacity:0.42;}.cls-4{fill:#fff;}</style></defs><g id="Pasos"><rect class="cls-1" x="-43" y="-32" width="482" height="417"/><rect class="cls-2" x="128.53" y="49.59" width="108.12" height="204.22" rx="9.18"/><rect class="cls-3" x="55" y="63.83" width="92.1" height="173.96" rx="9.18"/><rect class="cls-3" x="215.16" y="63.83" width="92.1" height="173.96" rx="9.18"/><path class="cls-4" d="M159.66,220.25a130.47,130.47,0,0,0,22.9-44.09L178,174.89c-2.21,9.11.76,18.53,6.3,25.88,5.76,7.64,13.76,13.07,21.63,18.33,2.54,1.71,4.93-2.4,2.4-4.1-12.73-8.52-30.07-21-25.75-38.84.72-3-3.71-4.2-4.58-1.27a124.1,124.1,0,0,1-21.68,42c-1.88,2.37,1.46,5.76,3.36,3.36Z"/><path class="cls-4" d="M162.82,220.1c4.05-4.31,9.73-6.74,13.67-11.17s6.15-10.49,3.35-16c-1.38-2.73-5.48-.33-4.1,2.39,2.06,4.06-1,8.85-3.92,11.57-3.88,3.58-8.72,6-12.36,9.84-2.1,2.23,1.26,5.6,3.36,3.36Z"/><path class="cls-4" d="M209,216.25a149.2,149.2,0,0,1-24.44-39.57c-1.16-2.78-5.76-1.56-4.58,1.26a156.52,156.52,0,0,0,25.66,41.67c2,2.32,5.34-1.05,3.36-3.36Z"/><path class="cls-4" d="M157.1,222.72c3.06,0,3.07-4.75,0-4.75s-3.06,4.75,0,4.75Z"/><path class="cls-4" d="M158.25,222.3A30.92,30.92,0,0,0,171,209.69a2.38,2.38,0,0,0-4.1-2.4,28.25,28.25,0,0,1-2.21,3.5c0,.06-.44.56-.09.12l-.29.36c-.22.27-.44.54-.67.8-.45.52-.92,1-1.41,1.51s-1,.95-1.53,1.4q-.35.32-.72.6c-.06,0-.57.43-.11.09l-.46.34a29.45,29.45,0,0,1-3.51,2.19,2.39,2.39,0,0,0-.85,3.25,2.43,2.43,0,0,0,3.25.85Z"/><path class="cls-4" d="M158.15,223.05a63.86,63.86,0,0,0,16.3-9.17c4.68-3.64,9.48-8,10.18-14.21a2.37,2.37,0,0,0-2.37-2.37,2.44,2.44,0,0,0-2.38,2.37,11,11,0,0,1-3.19,5.87,43.45,43.45,0,0,1-5.8,5.13,58.42,58.42,0,0,1-14,7.8,2.43,2.43,0,0,0-1.66,2.92,2.4,2.4,0,0,0,2.92,1.66Z"/><path class="cls-4" d="M179.45,199.35a17.1,17.1,0,0,0-8.23.05,2.38,2.38,0,0,0,1.26,4.59,15.72,15.72,0,0,1,1.66-.33l-.63.08a14.55,14.55,0,0,1,3.9,0l-.63-.09q.71.1,1.41.27a2.38,2.38,0,0,0,1.26-4.58Z"/><path class="cls-4" d="M178.09,175.43a13.66,13.66,0,0,0-.11,3.83,16.38,16.38,0,0,0,.84,3.65,38.69,38.69,0,0,0,3.11,6.37,3.17,3.17,0,1,0,5.47-3.2,42.5,42.5,0,0,1-2.13-4l-.09-.19h0l-.08-.19c-.15-.37-.28-.76-.4-1.14a13.4,13.4,0,0,1-.5-2.15l.11.85a10.86,10.86,0,0,1,0-2.79l-.12.85,0-.2a3.44,3.44,0,0,0-.32-2.44,3.18,3.18,0,0,0-1.89-1.46,3.24,3.24,0,0,0-2.44.32,3.07,3.07,0,0,0-1.46,1.89Z"/><path class="cls-4" d="M208.77,215.66c-4.41-3.2-9-6.25-13.18-9.76-3.68-3.11-6.92-6.71-8.25-11.23a3.17,3.17,0,0,0-6.11,1.68c1.61,5.5,5.26,10.07,9.56,13.75,4.66,4,9.83,7.43,14.79,11a3.17,3.17,0,0,0,3.19-5.47Z"/><path class="cls-4" d="M171.52,212.55a30.72,30.72,0,0,1,2.3-4.72c1-1.61,2.13-3.1,3-4.77a28.8,28.8,0,0,0,1.85-5.56,9.65,9.65,0,0,1,.45-1.41c-.19.42.33-.5.32-.48-.21.29.32-.35.39-.42-.21.15-.15.12.17-.08a.4.4,0,0,1-.33.09L176.48,192c0,1.84-.4,4.26.5,5.94,1.13,2.11,3.8,2.53,5.93,1.89a6.57,6.57,0,0,0,3.66-9.62c-1.53-2.64-6-1.59-5.91,1.6s2.42,5.27,4.3,7.54l5.54,6.72a3.19,3.19,0,0,0,4.48,0,3.25,3.25,0,0,0,0-4.48L190.34,196l-2.25-2.72c-.22-.27-.69-.84-.79-1s-.32-.93-.3-.45l-5.9,1.6c.2.33.23.4.1.19s0-.2,0,.2c.12-.4.16-.08-.08,0,.46-.23-.38-.08-.15,0a.25.25,0,0,1,.26-.07c-.54,0-.46,0,.23.09l1.14,1.14c.25.44.12,1,.23.26a11.22,11.22,0,0,0,0-1.16V192a3.19,3.19,0,0,0-3.17-3.17,7.39,7.39,0,0,0-5.89,3.84c-1.14,2-1.35,4.25-2.1,6.38-.66,1.87-2,3.48-3.09,5.17a40.39,40.39,0,0,0-3.16,6.6,3.19,3.19,0,0,0,2.21,3.9,3.25,3.25,0,0,0,3.9-2.21Z"/><path class="cls-4" d="M207.46,215.91a39.86,39.86,0,0,1-22.32-15.74,3.25,3.25,0,0,0-4.33-1.14,3.2,3.2,0,0,0-1.14,4.34A46.43,46.43,0,0,0,205.77,222c3.94,1.07,5.63-5,1.69-6.11Z"/></g></svg>