<svg xmlns="http://www.w3.org/2000/svg" viewBox="0 0 468 366"><defs><style>.cls-1{fill:#eee7e5;}.cls-2,.cls-8{fill:none;stroke:#fff;stroke-miterlimit:10;}.cls-2{stroke-width:3px;}.cls-3{fill:#fff;}.cls-4{fill:#9dc5bd;}.cls-5{fill:#c2cb9d;opacity:0.66;}.cls-6{fill:#fbbb8f;opacity:0.45;}.cls-7{fill:#a9cdc6;}.cls-9{fill:#ffe18e;}</style></defs><g id="Pasos"><rect class="cls-1" x="-8" y="-38" width="482" height="417"/><rect class="cls-2" x="156.23" y="88.16" width="174.13" height="183.07" rx="4.53" transform="translate(422.98 -63.6) rotate(90)"/><path class="cls-3" d="M337.63,95.59c3-7.65,9.44-13.29,15-19Q363.4,65.48,374.1,54.37c2.83-2.94-1.64-7.42-4.48-4.48C362.16,57.6,354.76,65.37,347.25,73c-6.19,6.3-12.46,12.51-15.73,20.89-1.49,3.8,4.64,5.44,6.11,1.68Z"/><path class="cls-3" d="M157.82,91.3c-7.45-4.38-12.16-11.83-17.2-18.61C134.12,64,127.54,55.28,121,46.57a3.27,3.27,0,0,0-4.33-1.14c-1.36.78-2.16,3-1.14,4.34C122.35,58.85,129.27,67.87,136,77c5.39,7.34,10.63,15,18.64,19.75,3.53,2.07,6.72-3.41,3.2-5.47Z"/><rect class="cls-4" x="157.46" y="145.42" width="54.49" height="111.91" rx="7.15"/><rect class="cls-5" x="200.1" y="145.42" width="54.49" height="111.91" rx="7.15"/><rect class="cls-6" x="176.41" y="145.42" width="54.49" height="111.91" rx="7.15"/><rect class="cls-7" x="263.04" y="170.75" width="48.56" height="86.57" rx="7.15"/><path class="cls-3" d="M200.18,258a162.66,162.66,0,0,0,14.55-21.85c2.15-3.77,4.21-7.57,6.25-11.39,1.93-3.63,4-7.24,5.62-11a34.13,34.13,0,0,0,3.06-11.06,59,59,0,0,0-.56-11.34,47.29,47.29,0,0,1-.42-11.21,10.14,10.14,0,0,1,2-5.27,11.6,11.6,0,0,1,5.3-3.43c6.37-2.27,14.16-.7,18.49,4.68a14.68,14.68,0,0,1,3.32,9.52,15.86,15.86,0,0,1-4.28,9.73c-5.55,6.39-13.9,9.46-19.91,15.36-5.48,5.39-9.3,12.12-12.28,19.15-3.06,7.23-5.29,14.77-7.9,22.16-1.26,3.57-2.73,7.55-6.09,9.65-2.5,1.57-6.06,1.77-7.75-1a3.53,3.53,0,0,1-.22-3.55c.81-1.63-1.83-2.64-2.63-1-1.45,2.89,0,6.42,2.46,8.23,2.93,2.14,6.84,1.51,9.74-.32,3.6-2.27,5.45-6.3,6.84-10.16s2.72-8,4.09-12c2.69-7.87,5.64-15.81,10.38-22.71a40.78,40.78,0,0,1,8.48-9.11c3.8-3,8.07-5.29,11.92-8.21,6.17-4.68,11.33-11.66,9.64-19.8A18.2,18.2,0,0,0,245,167.86a20.86,20.86,0,0,0-11.1,1.38,12.52,12.52,0,0,0-7.79,9.31c-1.62,8,1.5,16.16.74,24.22a35.4,35.4,0,0,1-3.68,11.78c-1.95,4-4.14,8-6.26,11.93a222.24,222.24,0,0,1-14.7,24.25c-1.38,1.91-2.8,3.78-4.28,5.62-1.14,1.41,1.14,3.07,2.28,1.66Z"/><rect class="cls-8" x="262.07" y="214.04" width="64.31" height="43.29" rx="3.6"/><path class="cls-9" d="M273.59,229.89c4.08,0,4.09-6.34,0-6.34s-4.08,6.34,0,6.34Z"/><path class="cls-9" d="M287.77,229.89c4.08,0,4.09-6.34,0-6.34s-4.08,6.34,0,6.34Z"/><path class="cls-9" d="M302,229.89c4.08,0,4.09-6.34,0-6.34s-4.08,6.34,0,6.34Z"/><path class="cls-9" d="M316.13,229.89c4.08,0,4.09-6.34,0-6.34s-4.08,6.34,0,6.34Z"/><path class="cls-9" d="M273.59,240.44c4.08,0,4.09-6.33,0-6.33s-4.08,6.33,0,6.33Z"/><path class="cls-9" d="M287.77,240.44c4.08,0,4.09-6.33,0-6.33s-4.08,6.33,0,6.33Z"/><path class="cls-9" d="M302,240.44c4.08,0,4.09-6.33,0-6.33s-4.08,6.33,0,6.33Z"/><path class="cls-9" d="M316.13,240.44c4.08,0,4.09-6.33,0-6.33s-4.08,6.33,0,6.33Z"/><path class="cls-9" d="M273.59,251c4.08,0,4.09-6.33,0-6.33s-4.08,6.33,0,6.33Z"/><path class="cls-9" d="M287.77,251c4.08,0,4.09-6.33,0-6.33s-4.08,6.33,0,6.33Z"/><path class="cls-9" d="M302,251c4.08,0,4.09-6.33,0-6.33s-4.08,6.33,0,6.33Z"/><path class="cls-9" d="M316.13,251c4.08,0,4.09-6.33,0-6.33s-4.08,6.33,0,6.33Z"/></g></svg>