<svg xmlns="http://www.w3.org/2000/svg" viewBox="0 0 132 132"><defs><style>.cls-1{fill:#eee7e5;}.cls-2{fill:none;stroke:#fff;stroke-miterlimit:10;stroke-width:3px;}.cls-3{fill:#9dc5bd;}</style></defs><g id="Pasos"><rect class="cls-1" width="132" height="132"/><rect class="cls-2" x="-11.38" y="21.64" width="101" height="65.54" rx="4.53" transform="translate(93.54 15.3) rotate(90)"/><path class="cls-3" d="M66.18,40.42h-.07a1.77,1.77,0,0,1-1.44-.82,31.52,31.52,0,0,0-5.5-6,1.79,1.79,0,0,1,2.29-2.76,38,38,0,0,1,4.81,4.91A67.38,67.38,0,0,1,80.16,24a1.79,1.79,0,1,1,1.93,3c-9.67,6.22-14.43,12.58-14.47,12.64A1.8,1.8,0,0,1,66.18,40.42Z"/><path class="cls-3" d="M66.18,64.42h-.07a1.77,1.77,0,0,1-1.44-.82,31.52,31.52,0,0,0-5.5-6,1.79,1.79,0,0,1,2.29-2.76,38,38,0,0,1,4.81,4.91A67.38,67.38,0,0,1,80.16,48a1.79,1.79,0,0,1,1.93,3c-9.67,6.22-14.43,12.58-14.47,12.64A1.8,1.8,0,0,1,66.18,64.42Z"/><path class="cls-3" d="M66.18,86.42h-.07a1.77,1.77,0,0,1-1.44-.82,31.52,31.52,0,0,0-5.5-6,1.79,1.79,0,0,1,2.29-2.76,38,38,0,0,1,4.81,4.91A67.38,67.38,0,0,1,80.16,70a1.79,1.79,0,1,1,1.93,3c-9.67,6.22-14.43,12.58-14.47,12.64A1.8,1.8,0,0,1,66.18,86.42Z"/><path class="cls-3" d="M22.4,32.49q15.62.27,31.23-.14c1.93-.05,1.93-3.05,0-3q-15.62.42-31.23.14c-1.93,0-1.93,3,0,3Z"/><path class="cls-3" d="M22.4,56.49q15.62.27,31.23-.14c1.93-.05,1.93-3.05,0-3q-15.62.42-31.23.14c-1.93,0-1.93,3,0,3Z"/><path class="cls-3" d="M22.4,78.49q15.62.27,31.23-.14c1.93,0,1.93-3,0-3q-15.62.42-31.23.14c-1.93,0-1.93,3,0,3Z"/></g></svg>