<svg xmlns="http://www.w3.org/2000/svg" xmlns:xlink="http://www.w3.org/1999/xlink" viewBox="0 0 2574.45 2071.91"><defs><style>.cls-1{fill:none;}.cls-2{clip-path:url(#clip-path);}.cls-3{fill:#9dc5bd;}.cls-4{opacity:0.43;}</style><clipPath id="clip-path"><rect class="cls-1" x="-101.75" y="4.82" width="2687.03" height="2059.19"/></clipPath></defs><g id="Suscrip"><g class="cls-2"><image width="6605" height="4408" transform="translate(-539 -29) scale(0.49)" xlink:href="../../../../Documents/FOTO.jpg"/></g><path class="cls-3" d="M736.79,1272.46c-1.5.24.8-.1,1.13.08-.07,0-1.32-.3-.22,0l.83.22c.1,0,1.28.59.55.18s.46.29.49.31c.26.15.5.31.75.47,1.16.74-.74-.75.26.21.49.47.94,1,1.41,1.45s-.63-1.08.08.12c.15.26.33.5.48.76s.84,1.83.42.69a23.76,23.76,0,0,1,.67,2.37c.22.83,0-1.35,0,0,0,.28,0,.57,0,.85s0,.57,0,.85c0,.08-.13,1.47,0,.52s-.09.44-.11.52c-.06.27-.13.55-.2.82s-.16.55-.25.82c-.19.56-.45,1.1-.05.25a18.72,18.72,0,0,1-2,3.31c.85-1.13-.58.57-.8.8s-.41.39-.63.58-1.28.87-.19.19c-.54.34-1.05.71-1.62,1-.31.17-.63.32-.94.48.17-.08,1.12-.39.16-.08-.61.2-1.22.39-1.85.53s-1,.52,0,0a3.62,3.62,0,0,1-1.27.07c-.14,0-1.67-.13-1.7-.07.08-.17,1.11.22.23,0-.34-.09-.69-.15-1-.24-.62-.15-1.21-.39-1.82-.58,1.08.33.45.22.16.07s-.77-.38-1.14-.59a19.82,19.82,0,0,1-1.8-1.17c1,.7-.16-.18-.5-.5a19.56,19.56,0,0,1-1.44-1.57c.12.15.65,1,.11.12-.23-.36-.47-.71-.68-1.08s-.26-.51-.4-.75c-.68-1.16.22.76,0,0-.19-.62-.41-1.21-.56-1.84a4.07,4.07,0,0,1-.16-.83c-.22,1,.08.62,0,0s-.23-1.93,0-2.3c0,.06-.25,1.36,0,.25.08-.41.16-.82.26-1.23.18-.68.42-1.32.65-2-.45,1.32.29-.52.53-.93s.36-.6.55-.89,1-1.23.43-.63.34-.36.37-.4c.28-.3.58-.6.88-.89l.63-.56c1-.91-1,.59.19-.14.59-.37,1.19-.7,1.8-1,1.15-.67-.78.22,0,0,.47-.15.93-.32,1.4-.45a5.61,5.61,0,1,0-3-10.81,22.2,22.2,0,0,0-15.45,16.6c-1.75,8.67,1.89,16.77,9,21.8a20.92,20.92,0,0,0,22.71.85c6.69-4.18,11.32-12.2,10.59-20.2a19.67,19.67,0,0,0-6.3-12.9,17.19,17.19,0,0,0-14.7-4.35c-2.9.47-4.77,4.23-3.91,6.89,1,3.15,3.78,4.42,6.89,3.92Z"/><g class="cls-4"><path class="cls-3" d="M886.28,1123c-1.5.24.8-.1,1.12.08-.06,0-1.31-.3-.21,0l.83.22c.09,0,1.28.6.54.19s.47.28.5.3c.26.15.5.31.75.47,1.16.74-.74-.75.26.21.49.47.94,1,1.41,1.45s-.63-1.08.08.12c.15.26.32.51.48.77s.84,1.82.42.68c.29.79.46,1.57.67,2.37s0-1.35,0,0c0,.29,0,.57,0,.86s0,.56,0,.84c0,.08-.13,1.47,0,.53s-.1.43-.11.51c-.06.27-.13.55-.21.82s-.15.55-.24.82c-.19.56-.45,1.1-.06.25a18.67,18.67,0,0,1-2,3.31c.84-1.13-.58.57-.81.8s-.41.39-.62.58-1.29.87-.19.19c-.55.34-1.06.72-1.62,1-.31.17-.63.32-.95.48.18-.09,1.13-.4.16-.09a14.85,14.85,0,0,1-1.84.53c-.53.11-1,.52,0,0a3.62,3.62,0,0,1-1.27.08c-.15,0-1.67-.13-1.7-.08.08-.17,1.11.22.23,0-.35-.08-.7-.14-1-.23-.62-.16-1.21-.4-1.83-.58,1.09.32.46.21.16.06s-.76-.38-1.14-.59a19,19,0,0,1-1.79-1.17c1,.7-.16-.17-.5-.5a19.4,19.4,0,0,1-1.45-1.56c.13.15.66,1,.12.11-.23-.36-.47-.71-.68-1.08s-.26-.5-.4-.75c-.68-1.16.22.77,0,0-.2-.62-.42-1.21-.56-1.84a3.06,3.06,0,0,1-.16-.83c-.23,1,.07.62,0,0,0-.42-.23-1.93,0-2.3,0,.06-.26,1.37,0,.25.08-.41.16-.82.27-1.22.17-.68.42-1.33.65-2-.45,1.33.29-.52.53-.93s.36-.6.55-.89.95-1.23.42-.63.34-.36.38-.39c.28-.31.57-.61.88-.9l.62-.56c1-.91-1,.6.2-.13.59-.38,1.19-.71,1.79-1.06,1.15-.67-.78.22,0,0,.47-.14.92-.31,1.4-.45a5.61,5.61,0,0,0-3-10.81A22.21,22.21,0,0,0,862,1127c-1.75,8.67,1.89,16.77,9,21.8a20.89,20.89,0,0,0,22.7.86c6.7-4.18,11.33-12.2,10.59-20.21a19.56,19.56,0,0,0-6.29-12.89,17.16,17.16,0,0,0-14.7-4.36c-2.9.47-4.78,4.23-3.91,6.9,1,3.14,3.78,4.41,6.89,3.91Z"/></g><path class="cls-3" d="M923.65,1313.57c-1.5.24.8-.11,1.13.08-.07,0-1.32-.3-.22,0,.28.07.56.13.83.22.09,0,1.28.59.55.18s.46.29.49.31c.26.15.5.31.75.47,1.16.73-.74-.75.26.21.49.47.94,1,1.41,1.45s-.63-1.08.08.12c.15.26.33.5.48.76s.84,1.83.42.69a23.76,23.76,0,0,1,.67,2.37c.22.83,0-1.35,0,0,0,.28,0,.57,0,.85s0,.57,0,.85c0,.08-.13,1.47,0,.52s-.09.43-.11.51c-.06.28-.13.56-.2.83s-.16.55-.25.82c-.19.56-.45,1.1,0,.25a19.09,19.09,0,0,1-2,3.31c.84-1.13-.58.57-.81.79l-.62.59c-.23.21-1.28.87-.19.19-.55.34-1,.71-1.62,1-.31.17-.63.32-.94.48.17-.08,1.12-.4.16-.08-.61.2-1.22.39-1.85.53s-1,.51,0,0a3.62,3.62,0,0,1-1.27.07c-.15,0-1.67-.13-1.7-.07.08-.17,1.11.22.23,0-.34-.08-.69-.14-1-.23-.62-.16-1.21-.39-1.82-.58,1.08.33.45.22.16.06s-.77-.37-1.14-.59a17.81,17.81,0,0,1-1.8-1.16c1,.7-.16-.18-.5-.5a16.44,16.44,0,0,1-1.44-1.57c.12.15.65,1,.11.12-.23-.36-.47-.71-.68-1.08s-.26-.51-.4-.75c-.68-1.16.22.76,0,0-.19-.61-.41-1.2-.56-1.83a3.13,3.13,0,0,1-.16-.83c-.22,1,.07.62,0,0,0-.42-.23-1.93,0-2.29,0,.06-.25,1.36,0,.25.08-.41.16-.82.26-1.23.17-.68.42-1.33.65-2-.45,1.32.29-.52.53-.93s.36-.6.55-.9c.1-.14,1-1.22.43-.62s.33-.36.37-.4c.28-.31.58-.61.88-.89s.42-.38.63-.56c1-.91-1,.59.19-.14.59-.37,1.19-.71,1.8-1,1.15-.67-.79.22,0,0,.47-.15.93-.32,1.4-.45a5.61,5.61,0,0,0-3-10.81,22.2,22.2,0,0,0-15.45,16.6c-1.75,8.66,1.89,16.77,9,21.8a20.91,20.91,0,0,0,22.7.85c6.7-4.18,11.33-12.2,10.6-20.21a19.66,19.66,0,0,0-6.3-12.89,17.16,17.16,0,0,0-14.7-4.35c-2.9.47-4.77,4.23-3.91,6.89,1,3.15,3.78,4.42,6.89,3.92Z"/><path class="cls-3" d="M825.85,1204c7.21,0,7.22-11.21,0-11.21s-7.23,11.21,0,11.21Z"/><path class="cls-3" d="M728.37,1165c7.22,0,7.23-11.21,0-11.21s-7.22,11.21,0,11.21Z"/><path class="cls-3" d="M818.76,1033.82c7.21,0,7.22-11.21,0-11.21s-7.23,11.21,0,11.21Z"/><path class="cls-3" d="M1035.77,1197.71c-1.51.25.79-.1,1.12.08-.07,0-1.32-.3-.21,0,.27.08.55.14.83.23.09,0,1.28.59.54.18s.47.29.5.31c.25.14.5.31.74.46,1.17.74-.74-.74.27.22.49.46.93,1,1.41,1.44s-.63-1.07.07.13c.15.26.33.5.48.76s.85,1.83.42.69a24.41,24.41,0,0,1,.68,2.36c.22.83,0-1.35,0,0,0,.28,0,.56,0,.85s0,.57,0,.85c0,.07-.13,1.46,0,.52s-.1.43-.12.51c-.06.28-.12.55-.2.83s-.16.54-.25.81c-.18.57-.45,1.1,0,.25a18.93,18.93,0,0,1-2,3.31c.84-1.12-.58.58-.81.8l-.62.59c-.24.21-1.29.87-.2.19-.54.33-1.05.71-1.61,1-.31.17-.63.32-1,.48.17-.09,1.12-.4.16-.08a16.75,16.75,0,0,1-1.84.52c-.54.12-1,.52,0,0a3.91,3.91,0,0,1-1.28.07c-.14,0-1.67-.13-1.69-.08.08-.16,1.1.23.23,0-.35-.08-.7-.14-1-.23-.63-.16-1.22-.39-1.83-.58,1.09.33.46.22.16.06s-.77-.38-1.14-.59a21,21,0,0,1-1.79-1.16c1,.7-.16-.18-.5-.5a19.53,19.53,0,0,1-1.45-1.57c.13.15.65,1,.11.11-.23-.36-.46-.71-.67-1.08s-.26-.5-.41-.74c-.67-1.16.22.76,0,0-.19-.61-.41-1.21-.55-1.84a3,3,0,0,1-.16-.82c-.23,1,.07.62,0,0,0-.42-.23-1.93,0-2.29,0,.05-.25,1.36,0,.25.08-.41.16-.82.27-1.23.17-.68.42-1.33.64-2-.45,1.32.3-.52.53-.93s.36-.6.56-.9c.09-.15,1-1.22.42-.62s.34-.36.37-.4c.29-.31.58-.61.89-.9s.41-.37.62-.55c1-.91-1,.59.19-.14.59-.38,1.2-.71,1.8-1.06,1.15-.66-.78.23,0,0,.47-.14.93-.31,1.41-.44a5.61,5.61,0,1,0-3-10.81,22.17,22.17,0,0,0-15.44,16.6c-1.76,8.66,1.89,16.77,9,21.8a20.91,20.91,0,0,0,22.7.85c6.7-4.18,11.32-12.2,10.59-20.21a19.7,19.7,0,0,0-6.29-12.89,17.19,17.19,0,0,0-14.7-4.36c-2.9.47-4.78,4.23-3.92,6.9,1,3.14,3.79,4.42,6.9,3.91Z"/><path class="cls-3" d="M1185.26,1048.23c-1.51.24.79-.11,1.12.08-.07,0-1.32-.3-.22,0,.28.07.56.13.84.22.09,0,1.27.59.54.18s.46.29.5.31l.74.47c1.17.74-.74-.75.27.21.49.47.93,1,1.4,1.45s-.63-1.08.08.12c.15.26.33.5.48.76s.85,1.83.42.69a23.76,23.76,0,0,1,.67,2.37c.22.83,0-1.35,0,0,0,.28,0,.57,0,.85s0,.57,0,.85c0,.08-.13,1.47,0,.52s-.09.44-.11.51c-.06.28-.13.56-.2.83s-.16.55-.25.82c-.18.56-.45,1.1,0,.25a19.69,19.69,0,0,1-2,3.31c.84-1.13-.59.57-.81.8s-.41.39-.63.58-1.28.87-.19.19c-.54.34-1.05.71-1.61,1l-1,.48c.17-.08,1.12-.4.16-.08-.61.2-1.22.39-1.85.53s-1,.52,0,0a3.59,3.59,0,0,1-1.27.07c-.14,0-1.67-.13-1.7-.07.09-.17,1.11.22.23,0-.34-.08-.69-.14-1-.23-.63-.16-1.22-.39-1.83-.58,1.08.33.45.22.16.06s-.77-.37-1.14-.59a20.37,20.37,0,0,1-1.8-1.16c1,.7-.16-.18-.5-.5a19.56,19.56,0,0,1-1.44-1.57c.12.15.65,1,.11.12-.23-.36-.47-.71-.68-1.08s-.26-.51-.4-.75c-.68-1.16.22.76,0,0-.19-.61-.41-1.2-.55-1.83a3.59,3.59,0,0,1-.17-.83c-.22,1,.08.62,0,0,0-.42-.23-1.93,0-2.29,0,.06-.25,1.36,0,.25.08-.41.16-.82.26-1.23.18-.68.42-1.33.65-2-.45,1.32.29-.52.53-.93s.36-.6.55-.9c.1-.14,1-1.22.43-.62s.34-.36.37-.4c.28-.31.58-.6.88-.89l.63-.56c1-.91-1,.59.19-.14.59-.37,1.2-.7,1.8-1,1.15-.67-.78.22,0,0,.47-.15.93-.32,1.4-.45a5.61,5.61,0,1,0-3-10.81,22.2,22.2,0,0,0-15.45,16.6c-1.75,8.66,1.89,16.77,9,21.8a20.92,20.92,0,0,0,22.71.85c6.7-4.18,11.32-12.2,10.59-20.2a19.67,19.67,0,0,0-6.3-12.9,17.17,17.17,0,0,0-14.69-4.35c-2.91.47-4.78,4.23-3.92,6.89,1,3.15,3.78,4.42,6.9,3.92Z"/><g class="cls-4"><path class="cls-3" d="M1222.63,1238.82c-1.51.25.79-.1,1.12.08-.07,0-1.32-.3-.22,0,.28.08.56.14.84.23.09,0,1.28.59.54.18s.46.28.5.3l.74.47c1.17.74-.74-.74.27.22.49.46.93,1,1.4,1.44s-.62-1.07.08.13c.15.25.33.5.48.76s.85,1.83.42.69c.29.78.46,1.56.68,2.36s0-1.35,0,0c0,.28,0,.56,0,.85s0,.56,0,.85c0,.07-.13,1.46,0,.52s-.1.43-.12.51c-.06.28-.12.55-.2.83s-.16.54-.25.81c-.18.56-.45,1.1-.05.25a18.93,18.93,0,0,1-1.95,3.31c.84-1.12-.58.58-.81.8l-.62.59c-.24.21-1.29.86-.2.19-.54.33-1,.71-1.61,1-.31.17-.63.32-1,.48.17-.09,1.12-.4.16-.08a16.75,16.75,0,0,1-1.84.52c-.54.12-1,.52,0,0a3.91,3.91,0,0,1-1.28.07c-.14,0-1.67-.13-1.69-.08.08-.17,1.1.23.22,0-.34-.08-.69-.14-1-.23-.63-.16-1.22-.4-1.83-.58,1.09.33.46.21.16.06s-.77-.38-1.14-.59a19,19,0,0,1-1.79-1.17c1,.71-.16-.17-.5-.49a19.53,19.53,0,0,1-1.45-1.57c.13.15.65,1,.11.11-.23-.36-.46-.71-.68-1.08s-.25-.5-.4-.75c-.67-1.15.22.77,0,0-.19-.61-.41-1.21-.55-1.84a3.51,3.51,0,0,1-.17-.82c-.22,1,.08.62,0,0,0-.42-.23-1.93,0-2.29,0,0-.25,1.36,0,.25.08-.42.16-.82.26-1.23.18-.68.43-1.33.65-2-.45,1.32.3-.52.53-.93s.36-.61.56-.9,1-1.23.42-.62.34-.36.37-.4c.29-.31.58-.61.89-.9s.41-.37.62-.55c1-.91-1,.59.19-.14.59-.38,1.2-.71,1.8-1.06,1.15-.66-.78.23,0,0,.47-.14.93-.31,1.4-.44a5.61,5.61,0,1,0-3-10.81,22.15,22.15,0,0,0-15.44,16.6c-1.76,8.66,1.89,16.77,9,21.8a20.92,20.92,0,0,0,22.71.85c6.7-4.18,11.32-12.2,10.59-20.21a19.7,19.7,0,0,0-6.29-12.89,17.19,17.19,0,0,0-14.7-4.36c-2.91.47-4.78,4.23-3.92,6.9,1,3.14,3.79,4.42,6.9,3.91Z"/></g><path class="cls-3" d="M1124.82,1129.21c7.22,0,7.23-11.21,0-11.21s-7.23,11.21,0,11.21Z"/><path class="cls-3" d="M1027.35,1090.22c7.21,0,7.22-11.21,0-11.21s-7.23,11.21,0,11.21Z"/><path class="cls-3" d="M1117.73,959.07c7.22,0,7.23-11.21,0-11.21s-7.22,11.21,0,11.21Z"/><path class="cls-3" d="M935.72,1152.71c7.22,0,7.23-11.21,0-11.21s-7.22,11.21,0,11.21Z"/><g class="cls-4"><path class="cls-3" d="M915.72,939.25l.24,0-1.49.2a6.93,6.93,0,0,1,1.44,0l-1.49-.2a6.82,6.82,0,0,1,1.6.46l-1.34-.56a7.38,7.38,0,0,1,1.45.88l-1.13-.88a9.2,9.2,0,0,1,1.39,1.4l-.88-1.13a8.72,8.72,0,0,1,1,1.72l-.56-1.34a8.14,8.14,0,0,1,.52,1.89l-.2-1.49a9.31,9.31,0,0,1,0,2.11l.2-1.49a10.61,10.61,0,0,1-.62,2.27l.56-1.34a10.2,10.2,0,0,1-1.31,2.23l.87-1.13a10.86,10.86,0,0,1-1.67,1.65l1.13-.88a9.25,9.25,0,0,1-1.82,1.07l1.34-.57a9,9,0,0,1-2,.57l1.49-.2a9.31,9.31,0,0,1-2.11,0l1.49.2a10.58,10.58,0,0,1-2.27-.61l1.34.56a10.46,10.46,0,0,1-2.24-1.3l1.13.87a10,10,0,0,1-1.66-1.66l.88,1.13a9.25,9.25,0,0,1-1.07-1.82l.56,1.34a8.72,8.72,0,0,1-.56-2l.2,1.49a9.55,9.55,0,0,1,0-2.07l-.2,1.49a10.32,10.32,0,0,1,.66-2.45l-.56,1.34a10.19,10.19,0,0,1,1.3-2.2l-.88,1.14a10.11,10.11,0,0,1,1.64-1.63l-1.13.88a8.93,8.93,0,0,1,1.79-1l-1.34.57a8.8,8.8,0,0,1,1.09-.38,5.61,5.61,0,1,0-3-10.81,14.76,14.76,0,0,0-10.29,10.93,14,14,0,0,0,.75,8.43,14.93,14.93,0,0,0,5.4,6.45,14,14,0,0,0,15.08.47c4.42-2.75,7.57-8,7.1-13.33a13.38,13.38,0,0,0-4.22-8.9,13.58,13.58,0,0,0-4.74-2.81,11.6,11.6,0,0,0-5.82-.25,5.62,5.62,0,0,0-3.35,2.58,5.72,5.72,0,0,0-.56,4.32,5.65,5.65,0,0,0,2.57,3.35,6.38,6.38,0,0,0,4.32.56Z"/></g><g class="cls-4"><path class="cls-3" d="M736.79,1421.94c-1.5.25.8-.1,1.13.09-.07,0-1.32-.3-.22,0,.28.07.56.13.83.22.1,0,1.28.59.55.18s.46.29.49.31c.26.14.5.31.75.46,1.16.74-.74-.74.26.22.49.47.94,1,1.41,1.44s-.63-1.07.08.13c.15.26.33.5.48.76s.84,1.83.42.69a24.36,24.36,0,0,1,.67,2.36c.22.84,0-1.35,0,0,0,.28,0,.57,0,.85s0,.57,0,.85c0,.07-.13,1.46,0,.52s-.09.43-.11.51c-.06.28-.13.56-.2.83s-.16.54-.25.81c-.19.57-.45,1.1-.05.25a18.81,18.81,0,0,1-2,3.32c.85-1.13-.58.57-.8.79s-.41.4-.63.59-1.28.87-.19.19c-.54.34-1.05.71-1.62,1-.31.17-.63.32-.94.48.17-.09,1.12-.4.16-.08a16.92,16.92,0,0,1-1.85.52c-.53.12-1,.52,0,0a3.62,3.62,0,0,1-1.27.07c-.14,0-1.67-.13-1.7-.08.08-.16,1.11.23.23,0-.34-.08-.69-.14-1-.23-.62-.16-1.21-.39-1.82-.58,1.08.33.45.22.16.06s-.77-.38-1.14-.59a19.73,19.73,0,0,1-1.8-1.16c1,.7-.16-.18-.5-.5-.51-.5-1-1-1.44-1.57.12.15.65,1,.11.11-.23-.35-.47-.7-.68-1.08s-.26-.5-.4-.74c-.68-1.16.22.76,0,0-.19-.61-.41-1.21-.56-1.84a4,4,0,0,1-.16-.82c-.22,1,.08.62,0,0,0-.42-.23-1.93,0-2.29,0,.05-.25,1.36,0,.25.08-.41.16-.82.26-1.23.18-.68.42-1.33.65-2-.45,1.32.29-.52.53-.93s.36-.6.55-.9c.1-.15,1-1.22.43-.62s.34-.36.37-.4c.28-.31.58-.61.88-.89s.42-.38.63-.56c1-.91-1,.59.19-.14.59-.38,1.19-.71,1.8-1.06,1.15-.66-.78.23,0,0,.47-.15.93-.32,1.4-.45a5.61,5.61,0,1,0-3-10.81,22.2,22.2,0,0,0-15.45,16.6c-1.75,8.66,1.89,16.77,9,21.8a20.92,20.92,0,0,0,22.71.85c6.69-4.18,11.32-12.2,10.59-20.21a19.66,19.66,0,0,0-6.3-12.89,17.19,17.19,0,0,0-14.7-4.36c-2.9.47-4.77,4.23-3.91,6.9,1,3.15,3.78,4.42,6.89,3.91Z"/></g><g class="cls-4"><path class="cls-3" d="M1073.14,1537.8c-1.51.24.8-.11,1.12.08-.06,0-1.31-.3-.21,0,.28.07.55.13.83.22.09,0,1.28.59.54.18s.47.29.5.31c.26.15.5.31.75.47,1.16.74-.74-.75.26.21.49.47.94,1,1.41,1.45s-.63-1.08.07.12c.16.26.33.5.49.76s.84,1.83.41.69a21.4,21.4,0,0,1,.68,2.37c.22.83,0-1.35,0,0,0,.28,0,.57,0,.85s0,.57,0,.85c0,.08-.13,1.47,0,.52s-.1.44-.11.52c-.06.27-.13.55-.21.82s-.15.55-.24.82c-.19.56-.46,1.1-.06.25a19.69,19.69,0,0,1-1.95,3.31c.84-1.13-.58.57-.81.8s-.41.39-.62.58-1.29.87-.19.19c-.55.34-1.06.71-1.62,1-.31.17-.63.32-1,.48.17-.08,1.13-.4.16-.08-.61.2-1.21.39-1.84.53s-1,.52,0,0a3.66,3.66,0,0,1-1.28.07c-.14,0-1.67-.13-1.69-.07.08-.17,1.11.22.23,0-.35-.08-.7-.14-1-.23-.62-.15-1.21-.39-1.83-.58,1.09.33.46.22.16.07s-.76-.38-1.14-.6a18.86,18.86,0,0,1-1.79-1.16c1,.7-.16-.18-.5-.5a18,18,0,0,1-1.45-1.57c.13.15.66,1,.11.12-.23-.36-.46-.71-.67-1.08s-.26-.51-.4-.75c-.68-1.16.21.76,0,0-.2-.62-.42-1.21-.56-1.84a3.06,3.06,0,0,1-.16-.83c-.23,1,.07.62,0,0s-.23-1.94,0-2.3c0,.06-.26,1.36,0,.25.08-.41.16-.82.27-1.23.17-.68.42-1.32.65-2-.45,1.32.29-.52.53-.93s.36-.6.55-.89,1-1.23.42-.63.34-.36.38-.4c.28-.31.57-.6.88-.89l.62-.56c1-.91-.95.59.2-.14.59-.37,1.19-.7,1.79-1,1.15-.67-.78.22,0,0,.46-.15.92-.32,1.4-.45a5.61,5.61,0,0,0-3-10.81,22.18,22.18,0,0,0-15.45,16.6c-1.76,8.67,1.89,16.77,9,21.8a20.91,20.91,0,0,0,22.7.85c6.7-4.18,11.33-12.2,10.59-20.2a19.65,19.65,0,0,0-6.29-12.9,17.19,17.19,0,0,0-14.7-4.35c-2.9.47-4.78,4.23-3.92,6.89,1,3.15,3.79,4.42,6.9,3.92Z"/></g><g class="cls-4"><path class="cls-3" d="M766.23,1238.23l.25,0-1.49.2a5.7,5.7,0,0,1,1.43,0l-1.49-.2a6.82,6.82,0,0,1,1.6.46l-1.34-.57a8.33,8.33,0,0,1,1.46.88l-1.14-.88a8.83,8.83,0,0,1,1.39,1.41l-.87-1.14a9,9,0,0,1,1,1.72l-.56-1.34a8.36,8.36,0,0,1,.52,1.9l-.2-1.49a8.76,8.76,0,0,1,0,2.11l.2-1.49a9.83,9.83,0,0,1-.62,2.26l.57-1.34a10.65,10.65,0,0,1-1.32,2.23l.88-1.13a10.49,10.49,0,0,1-1.68,1.65l1.13-.87a9.72,9.72,0,0,1-1.82,1.06l1.34-.56a8.45,8.45,0,0,1-2,.56l1.49-.2a9.31,9.31,0,0,1-2.11,0l1.49.2A9.81,9.81,0,0,1,762,1243l1.33.57a10.94,10.94,0,0,1-2.24-1.31l1.14.88a10.49,10.49,0,0,1-1.66-1.67l.87,1.13a9.37,9.37,0,0,1-1.07-1.81l.57,1.34a9,9,0,0,1-.57-2l.2,1.49a9,9,0,0,1,0-2.07l-.2,1.49a9.63,9.63,0,0,1,.66-2.46l-.57,1.34a11,11,0,0,1,1.3-2.19l-.88,1.13a10.12,10.12,0,0,1,1.65-1.62l-1.14.87a9.39,9.39,0,0,1,1.79-1l-1.34.56a8.36,8.36,0,0,1,1.1-.37,5.61,5.61,0,0,0-3-10.82,14.76,14.76,0,0,0-10.29,10.93,14,14,0,0,0,.74,8.44,14.91,14.91,0,0,0,5.4,6.44,14,14,0,0,0,15.08.47c4.42-2.75,7.57-8,7.1-13.33a13.39,13.39,0,0,0-4.21-8.9,13.72,13.72,0,0,0-4.75-2.81,11.49,11.49,0,0,0-5.82-.24,5.61,5.61,0,0,0-3.35,2.57,5.72,5.72,0,0,0-.56,4.32,5.66,5.66,0,0,0,2.57,3.35,6.45,6.45,0,0,0,4.32.57Z"/></g><g class="cls-4"><path class="cls-3" d="M1110.51,1384.57c-1.5.25.8-.1,1.12.08-.06,0-1.31-.3-.21,0,.28.08.56.14.83.23.09,0,1.28.59.54.18s.47.28.5.3c.26.15.5.31.75.47,1.16.74-.74-.74.26.22.49.46.94,1,1.41,1.44s-.63-1.07.08.13c.15.25.32.5.48.76s.84,1.83.42.69a24.36,24.36,0,0,1,.67,2.36c.22.83,0-1.35,0,0,0,.28,0,.56,0,.85s0,.56,0,.85c0,.07-.13,1.46,0,.52s-.09.43-.11.51c-.06.28-.13.55-.21.83s-.15.54-.24.81c-.19.56-.45,1.1,0,.25a18.37,18.37,0,0,1-2,3.31c.84-1.12-.58.58-.81.8l-.62.59c-.23.21-1.29.86-.19.19-.55.33-1.06.71-1.62,1-.31.17-.63.32-.94.48.17-.09,1.12-.4.16-.08a17.57,17.57,0,0,1-1.85.52c-.53.12-1,.52,0,0a3.87,3.87,0,0,1-1.27.07c-.15,0-1.67-.13-1.7-.08.08-.17,1.11.23.23,0-.35-.08-.69-.14-1-.23-.62-.16-1.21-.4-1.83-.58,1.09.33.46.21.16.06s-.76-.38-1.13-.59a17.89,17.89,0,0,1-1.8-1.17c1,.71-.16-.17-.5-.49a19.53,19.53,0,0,1-1.45-1.57c.13.15.66,1,.12.11-.23-.36-.47-.71-.68-1.08s-.26-.5-.4-.75c-.68-1.15.22.77,0,0-.19-.61-.41-1.21-.56-1.84a3.06,3.06,0,0,1-.16-.82c-.22,1,.07.62,0,0,0-.42-.23-1.93,0-2.29,0,0-.25,1.36,0,.25.09-.42.16-.82.27-1.23.17-.68.42-1.33.65-2-.45,1.32.29-.52.53-.93s.36-.61.55-.9.95-1.23.42-.62.34-.36.38-.4c.28-.31.58-.61.88-.9s.42-.37.62-.55c1-.91-1,.59.2-.14.59-.38,1.19-.71,1.8-1.06,1.14-.66-.79.23,0,0,.47-.14.92-.31,1.4-.44a5.61,5.61,0,0,0-3-10.81,22.18,22.18,0,0,0-15.45,16.6c-1.75,8.66,1.89,16.77,9,21.8a20.91,20.91,0,0,0,22.7.85c6.7-4.18,11.33-12.2,10.6-20.21a19.66,19.66,0,0,0-6.3-12.89,17.19,17.19,0,0,0-14.7-4.36c-2.9.47-4.78,4.23-3.91,6.9,1,3.14,3.78,4.42,6.89,3.91Z"/></g><g class="cls-4"><path class="cls-3" d="M1446.86,1500.43c-1.51.24.79-.11,1.12.08-.07,0-1.32-.3-.21,0,.27.07.55.13.83.22.09,0,1.28.59.54.18s.47.29.5.31c.25.14.5.31.74.46,1.17.74-.74-.74.27.22.49.47.93,1,1.4,1.45s-.62-1.08.08.12c.15.26.33.5.48.76s.85,1.83.42.69a23.81,23.81,0,0,1,.68,2.37c.22.83,0-1.36,0,0,0,.28,0,.57,0,.85s0,.57,0,.85c0,.07-.13,1.47,0,.52s-.1.43-.12.51c-.06.28-.12.56-.2.83s-.16.55-.25.81c-.18.57-.45,1.1-.05.26a19.69,19.69,0,0,1-1.95,3.31c.84-1.13-.58.57-.81.79l-.62.59c-.24.21-1.29.87-.2.19-.54.34-1,.71-1.61,1-.31.17-.63.32-1,.48.17-.09,1.12-.4.16-.08-.61.2-1.21.39-1.84.53s-1,.51,0,0a3.66,3.66,0,0,1-1.28.07c-.14,0-1.67-.13-1.69-.08.08-.16,1.1.23.23,0-.35-.08-.7-.14-1-.23-.63-.16-1.22-.39-1.83-.58,1.09.33.46.22.16.06s-.77-.38-1.14-.59a18.86,18.86,0,0,1-1.79-1.16c1,.7-.16-.18-.5-.5a19.53,19.53,0,0,1-1.45-1.57c.13.15.65,1,.11.11-.23-.35-.46-.7-.67-1.07s-.26-.51-.41-.75c-.67-1.16.22.76,0,0-.19-.61-.41-1.21-.55-1.83a3.13,3.13,0,0,1-.16-.83c-.23,1,.07.62,0,0,0-.42-.23-1.93,0-2.29,0,.06-.25,1.36,0,.25.08-.41.16-.82.27-1.23.17-.68.42-1.33.64-2-.45,1.32.3-.52.53-.93s.36-.6.56-.9c.09-.14,1-1.22.42-.62s.34-.36.37-.4c.29-.31.58-.61.89-.89s.41-.38.62-.56c1-.91-1,.59.19-.14.59-.38,1.2-.71,1.8-1.06,1.15-.66-.78.23,0,0,.47-.15.93-.32,1.4-.45a5.61,5.61,0,1,0-3-10.81,22.17,22.17,0,0,0-15.44,16.6c-1.76,8.66,1.89,16.77,9,21.8a20.91,20.91,0,0,0,22.7.85c6.7-4.18,11.32-12.2,10.59-20.21a19.7,19.7,0,0,0-6.29-12.89,17.19,17.19,0,0,0-14.7-4.36c-2.91.48-4.78,4.24-3.92,6.9,1,3.15,3.79,4.42,6.9,3.92Z"/></g><g class="cls-4"><path class="cls-3" d="M1140,1200.86l.24,0-1.49.2a5.78,5.78,0,0,1,1.44,0l-1.49-.2a6.82,6.82,0,0,1,1.6.46l-1.34-.57a7.38,7.38,0,0,1,1.45.88l-1.13-.88a8.43,8.43,0,0,1,1.39,1.41l-.88-1.14a8.72,8.72,0,0,1,1,1.72l-.56-1.34a8.28,8.28,0,0,1,.52,1.89l-.2-1.49a9.31,9.31,0,0,1,0,2.11l.2-1.49a9.92,9.92,0,0,1-.62,2.27l.56-1.34a10.2,10.2,0,0,1-1.31,2.23l.87-1.13a10.86,10.86,0,0,1-1.67,1.65l1.13-.87a9.72,9.72,0,0,1-1.82,1.06l1.34-.56a8.94,8.94,0,0,1-2,.56l1.49-.2a9.31,9.31,0,0,1-2.11,0l1.49.2a10,10,0,0,1-2.27-.61l1.34.56a10.46,10.46,0,0,1-2.24-1.3l1.13.88a11.4,11.4,0,0,1-1.66-1.67l.88,1.13a10,10,0,0,1-1.07-1.81l.57,1.34a8.53,8.53,0,0,1-.57-2l.2,1.49a9.64,9.64,0,0,1,0-2.08l-.2,1.49a10.45,10.45,0,0,1,.66-2.45l-.56,1.34a9.89,9.89,0,0,1,1.3-2.19l-.88,1.13a10.47,10.47,0,0,1,1.64-1.62l-1.13.87a10,10,0,0,1,1.79-1l-1.34.57a10.82,10.82,0,0,1,1.09-.38,5.61,5.61,0,1,0-3-10.81,14.78,14.78,0,0,0-10.29,10.93,14,14,0,0,0,.75,8.44,14.91,14.91,0,0,0,5.4,6.44,14,14,0,0,0,15.08.47c4.42-2.75,7.57-8,7.1-13.33a13.44,13.44,0,0,0-4.21-8.9,13.72,13.72,0,0,0-4.75-2.81,11.49,11.49,0,0,0-5.82-.24,5.61,5.61,0,0,0-3.35,2.57,5.72,5.72,0,0,0-.56,4.32,5.63,5.63,0,0,0,2.57,3.35,6.44,6.44,0,0,0,4.32.57Z"/></g><path class="cls-3" d="M998.36,980.57l.24,0-1.49.2a6.93,6.93,0,0,1,1.44,0l-1.49-.2a7.11,7.11,0,0,1,1.6.46l-1.34-.56a8.19,8.19,0,0,1,1.45.87l-1.14-.87a8.37,8.37,0,0,1,1.39,1.4l-.87-1.13a9.16,9.16,0,0,1,1,1.71l-.57-1.34a7.88,7.88,0,0,1,.52,1.9l-.2-1.49a8.76,8.76,0,0,1,0,2.11l.2-1.49a9.36,9.36,0,0,1-.62,2.26l.57-1.34a10.72,10.72,0,0,1-1.32,2.24l.88-1.14a10.55,10.55,0,0,1-1.68,1.66l1.13-.88a9.76,9.76,0,0,1-1.82,1.07l1.34-.57a8.45,8.45,0,0,1-2,.56l1.49-.2a8.76,8.76,0,0,1-2.11,0l1.49.2a9.33,9.33,0,0,1-2.26-.61l1.34.57a10.33,10.33,0,0,1-2.25-1.31l1.14.88a9.72,9.72,0,0,1-1.66-1.67l.87,1.14a9.76,9.76,0,0,1-1.07-1.82l.57,1.34a8.5,8.5,0,0,1-.56-2l.2,1.49a8.43,8.43,0,0,1,0-2.07l-.2,1.49a9.45,9.45,0,0,1,.66-2.45l-.57,1.34a10.8,10.8,0,0,1,1.3-2.2l-.88,1.14a9.79,9.79,0,0,1,1.65-1.63l-1.14.88a8.93,8.93,0,0,1,1.79-1.05L994,980a10.15,10.15,0,0,1,1.1-.37,5.61,5.61,0,0,0-3-10.81,14.73,14.73,0,0,0-10.29,10.92,14,14,0,0,0,.74,8.44,15,15,0,0,0,5.41,6.45,14,14,0,0,0,15.08.47c4.41-2.76,7.56-8,7.09-13.34a13.39,13.39,0,0,0-4.21-8.9,13.78,13.78,0,0,0-4.75-2.81,11.48,11.48,0,0,0-5.82-.24,5.62,5.62,0,0,0-3.35,2.58,5.61,5.61,0,0,0,2,7.67,6.44,6.44,0,0,0,4.32.56Z"/><path class="cls-3" d="M1081,897.94l.24,0-1.49.2a5.78,5.78,0,0,1,1.44,0l-1.49-.2a6.82,6.82,0,0,1,1.6.46l-1.34-.57a7.68,7.68,0,0,1,1.45.88l-1.13-.88a8.83,8.83,0,0,1,1.39,1.41l-.88-1.14a8.72,8.72,0,0,1,1,1.72l-.57-1.34a7.82,7.82,0,0,1,.53,1.89l-.2-1.49a8.76,8.76,0,0,1,0,2.11l.2-1.49a9.89,9.89,0,0,1-.61,2.27l.56-1.34a10.24,10.24,0,0,1-1.32,2.23l.88-1.13a10.09,10.09,0,0,1-1.68,1.65l1.14-.87a9.72,9.72,0,0,1-1.82,1.06l1.34-.56a8.58,8.58,0,0,1-2,.56l1.49-.2a9.31,9.31,0,0,1-2.11,0l1.49.2a10,10,0,0,1-2.27-.61l1.34.56a10.23,10.23,0,0,1-2.24-1.3l1.13.88a10.49,10.49,0,0,1-1.66-1.67l.88,1.13a9.47,9.47,0,0,1-1.07-1.81l.56,1.34a9,9,0,0,1-.56-2l.2,1.49a9.64,9.64,0,0,1,0-2.08l-.2,1.49a10.45,10.45,0,0,1,.66-2.45l-.56,1.34a10.25,10.25,0,0,1,1.29-2.19l-.87,1.13a10.47,10.47,0,0,1,1.64-1.62l-1.13.87a10.27,10.27,0,0,1,1.78-1l-1.33.57a10,10,0,0,1,1.09-.38,5.61,5.61,0,1,0-3-10.81,14.76,14.76,0,0,0-10.29,10.93,14,14,0,0,0,.74,8.44,15,15,0,0,0,5.41,6.44,14,14,0,0,0,15.08.47c4.41-2.75,7.56-8,7.1-13.33a13.4,13.4,0,0,0-4.22-8.9,13.58,13.58,0,0,0-4.74-2.81,11.49,11.49,0,0,0-5.82-.24,5.61,5.61,0,0,0-3.35,2.57,5.77,5.77,0,0,0-.57,4.32,5.64,5.64,0,0,0,2.58,3.35,6.44,6.44,0,0,0,4.32.57Z"/><path class="cls-3" d="M993,921.24c7.22,0,7.23-11.21,0-11.21s-7.22,11.21,0,11.21Z"/><path class="cls-3" d="M942.39,955.78c7.21,0,7.22-11.21,0-11.21s-7.23,11.21,0,11.21Z"/><path class="cls-3" d="M1011.93,1236c7.21,0,7.23-11.22,0-11.22s-7.23,11.22,0,11.22Z"/><path class="cls-3" d="M1345.17,1271.54c-1.51.24.79-.1,1.12.08-.07,0-1.32-.3-.22,0l.84.22c.09,0,1.28.59.54.19s.46.28.5.3l.74.47c1.17.74-.74-.75.27.21.49.47.93,1,1.4,1.45s-.63-1.08.08.12c.15.26.33.51.48.77s.85,1.82.42.68a24.55,24.55,0,0,1,.67,2.37c.22.83,0-1.35,0,0,0,.29,0,.57,0,.85s0,.57,0,.85c0,.08-.14,1.47,0,.53s-.1.43-.12.51c-.06.27-.13.55-.2.82s-.16.55-.25.82c-.18.56-.45,1.1,0,.25a19.3,19.3,0,0,1-2,3.31c.84-1.13-.58.57-.81.8s-.41.39-.62.58-1.29.87-.2.19c-.54.34-1,.71-1.61,1-.31.18-.63.32-1,.48.17-.08,1.12-.39.16-.08a17,17,0,0,1-1.85.53c-.53.11-1,.52,0,0a3.66,3.66,0,0,1-1.28.07c-.14,0-1.67-.12-1.7-.07.09-.17,1.11.22.23,0l-1-.23c-.63-.16-1.22-.4-1.83-.58,1.08.32.45.21.16.06s-.77-.38-1.14-.59a21.15,21.15,0,0,1-1.79-1.17c1,.7-.17-.17-.51-.5-.51-.49-1-1-1.44-1.56.12.15.65,1,.11.11-.23-.36-.47-.71-.68-1.08s-.26-.5-.4-.75c-.68-1.16.22.77,0,0-.19-.62-.41-1.21-.55-1.84a3.49,3.49,0,0,1-.17-.83c-.22,1,.08.62,0,0,0-.42-.23-1.93,0-2.3,0,.06-.25,1.37,0,.25.08-.41.16-.82.26-1.22.18-.68.43-1.33.65-2-.45,1.33.3-.52.53-.93s.36-.6.55-.89,1-1.23.43-.63.34-.36.37-.39c.28-.31.58-.61.88-.9l.63-.56c1-.91-1,.6.19-.14.59-.37,1.2-.7,1.8-1,1.15-.67-.78.22,0,0,.47-.14.93-.31,1.4-.45a5.61,5.61,0,1,0-3-10.81,22.21,22.21,0,0,0-15.45,16.6c-1.75,8.67,1.9,16.77,9,21.8a20.92,20.92,0,0,0,22.71.86c6.7-4.19,11.32-12.2,10.59-20.21a19.62,19.62,0,0,0-6.3-12.89,17.13,17.13,0,0,0-14.69-4.36c-2.91.47-4.78,4.23-3.92,6.89,1,3.15,3.79,4.42,6.9,3.92Z"/><path class="cls-3" d="M1434.22,1203c7.21,0,7.22-11.21,0-11.21s-7.23,11.21,0,11.21Z"/><path class="cls-3" d="M1336.75,1164c7.21,0,7.22-11.21,0-11.21s-7.23,11.21,0,11.21Z"/><path class="cls-3" d="M1427.13,1032.9c7.21,0,7.23-11.21,0-11.21s-7.23,11.21,0,11.21Z"/></g></svg>